<?xml version="1.0" encoding="UTF-8" standalone="no"?>
<!-- Created with Inkscape (http://www.inkscape.org/) -->

<svg
   xmlns:dc="http://purl.org/dc/elements/1.1/"
   xmlns:cc="http://creativecommons.org/ns#"
   xmlns:rdf="http://www.w3.org/1999/02/22-rdf-syntax-ns#"
   xmlns:svg="http://www.w3.org/2000/svg"
   xmlns="http://www.w3.org/2000/svg"
   xmlns:sodipodi="http://sodipodi.sourceforge.net/DTD/sodipodi-0.dtd"
   xmlns:inkscape="http://www.inkscape.org/namespaces/inkscape"
   id="svg3004"
   version="1.1"
   inkscape:version="0.48.1 r9760"
   width="128"
   height="128"
   xml:space="preserve"
   sodipodi:docname="nodejs.svg"
   inkscape:export-filename="/Users/andrew/Downloads/nodejs.png"
   inkscape:export-xdpi="90"
   inkscape:export-ydpi="90"><metadata
     id="metadata3010"><rdf:RDF><cc:Work
         rdf:about=""><dc:format>image/svg+xml</dc:format><dc:type
           rdf:resource="http://purl.org/dc/dcmitype/StillImage" /><dc:title></dc:title></cc:Work></rdf:RDF></metadata><defs
     id="defs3008"><clipPath
       clipPathUnits="userSpaceOnUse"
       id="clipPath3020"><path
         d="M 0,501.602 0,0 l 1863.85,0 0,501.602 -1863.85,0 z"
         id="path3022"
         inkscape:connector-curvature="0" /></clipPath></defs><sodipodi:namedview
     pagecolor="#ffffff"
     bordercolor="#666666"
     borderopacity="1"
     objecttolerance="10"
     gridtolerance="10"
     guidetolerance="10"
     inkscape:pageopacity="0"
     inkscape:pageshadow="2"
     inkscape:window-width="1280"
     inkscape:window-height="671"
     id="namedview3006"
     showgrid="false"
     inkscape:zoom="3.5390625"
     inkscape:cx="64"
     inkscape:cy="64"
     inkscape:window-x="0"
     inkscape:window-y="0"
     inkscape:window-maximized="1"
     inkscape:current-layer="g3012" /><g
     id="g3012"
     inkscape:groupmode="layer"
     inkscape:label="ink_ext_XXXXXX"
     transform="matrix(1.25,0,0,-1.25,0,128)"><path
       style="fill:#83cd29;fill-opacity:1;fill-rule:nonzero;stroke:none"
       d="m 51.199995,102.4 c -1.3797,0 -2.72109,-0.3651 -3.90779,-1.03676 L 9.729595,79.671028 c -2.43081,-1.399467 -3.90779,-3.965209 -3.90779,-6.778816 l 0,-43.304673 c 0,-2.812459 1.47698,-5.454218 3.90779,-6.858567 l 9.80934,-5.662305 c 4.76591,-2.348884 6.52362,-2.312773 8.69284,-2.312773 7.05635,0 11.08536,4.201876 11.08536,11.643614 l 0,42.746417 c 0,0.604192 -0.52317,1.116511 -1.11651,1.116511 l -4.7053,0 c -0.60292,0 -1.11651,-0.512319 -1.11651,-1.116511 l 0,-42.746417 c 0,-3.298429 -3.43566,-6.535833 -9.01184,-3.748287 l -10.2081,5.901558 c -0.36047,0.196889 -0.638,0.623046 -0.638,1.03676 l 0,43.304673 c 0,0.411195 0.27434,0.82877 0.638,1.03676 l 37.48287,21.612461 c 0.3509,0.201929 0.7688,0.201929 1.11651,0 l 37.48286,-21.612461 c 0.35729,-0.21437 0.63801,-0.613124 0.63801,-1.03676 l 0,-43.304673 c 0,-0.413716 -0.20735,-0.837383 -0.55825,-1.03676 L 51.758255,6.9383178 c -0.32219,-0.1931552 -0.76561,-0.1931577 -1.11651,0 l -9.64985,5.6623052 c -0.2871,0.168242 -0.67947,0.235519 -0.95701,0.07975 -2.66367,-1.510289 -3.16451,-1.685995 -5.6623,-2.552025 -0.61568,-0.215582 -1.55036,-0.6280534 0.319,-1.6747664 L 47.292205,1.0367601 C 48.491665,0.3426757 49.828285,0 51.199995,0 c 1.39086,0 2.70834,0.3426757 3.90779,1.0367601 l 37.56262,21.6922119 c 2.4308,1.414299 3.90779,4.046108 3.90779,6.858567 l 0,43.304673 c 0,2.813607 -1.47699,5.373288 -3.90779,6.778816 l -37.56262,21.692212 c -1.17712,0.67166 -2.52809,1.03676 -3.90779,1.03676 z m 10.0486,-31.023053 c -10.69617,0 -17.06667,-4.472424 -17.06667,-12.042368 0,-8.212097 6.32265,-10.468406 16.58817,-11.484112 12.28162,-1.202322 13.23863,-3.005647 13.23863,-5.423053 0,-4.193296 -3.34316,-5.981308 -11.24486,-5.981308 -9.92738,0 -12.10936,2.478335 -12.83988,7.416822 -0.0861,0.529546 -0.49445,0.877259 -1.03676,0.877259 l -4.8648,0 c -0.59972,0 -1.11651,-0.436077 -1.11651,-1.03676 0,-6.321366 3.43886,-13.876636 19.85795,-13.876636 11.88605,0 18.74143,4.665421 18.74143,12.839876 0,8.103636 -5.53789,10.278918 -17.06667,11.803115 -11.64999,1.541423 -12.76012,2.375297 -12.76012,5.10405 0,2.251843 0.94106,5.263551 9.57009,5.263551 7.70712,0 10.55581,-1.662325 11.72337,-6.858567 0.10208,-0.488713 0.53273,-0.877258 1.03676,-0.877258 l 4.86479,0 c 0.29987,0 0.59016,0.103676 0.79751,0.319003 0.20416,0.230639 0.34771,0.568144 0.319,0.877258 -0.75284,8.949314 -6.72139,13.079128 -18.74143,13.079128 z"
       id="path3032"
       inkscape:connector-curvature="0" /></g></svg>